<svg xmlns="http://www.w3.org/2000/svg" width="50" height="59" fill="none"><path fill="#241510" d="M46.707 58.4964c-.7895-.0373-1.6748-.2239-2.5043-.5081-.8592-.2921-1.6569-.6845-2.296-1.071-.3924-.2391-.0574-.4443-.3151-.6232-.4957-.3498-1.0574-.4456-1.4999-.8393-.0243-.022-.0321-.0497-.0292-.0812.0154-.1573.2978-.4113.1703-.5165-.8309-.6874-1.7275-1.0776-2.524-1.7324-.301-.2482-.595-.4974-.8836-.7475-1.053-.9133-2.0328-1.8361-2.9725-2.7599-.9394-.9241-1.8372-1.849-2.7146-2.7717-.8695-.9145-1.7187-1.8279-2.5551-2.7236a57.2126 57.2126 0 0 1-.76-.8263c-.5642-.624-1.0825-1.3813-1.6175-2.1214-.4812-.6651-.9731-1.313-1.5272-1.8266-.1368-.1264-.4054.2417-.4559.2381-.785-.0711.0202-.4992-.1161-.8519a8.81279 8.81279 0 0 0-.2064-.4891c-.527-1.1507-1.2887-2.1933-2.0759-3.048a13.7285 13.7285 0 0 0-.109-.1167c-.3985-.4217-.7696.5618-.7117-.1984.0035-.0521.4695-.2088.418-.3658-.1179-.3549-.5772-.8567-.7048-1.104-.244-.4772-.2976-.5464-.5778-.9616-.0757-.114-.1467-.2371-.2159-.3657-.2774-.5155-.5228-1.1161-.9175-1.5546-.1065-.1162-.3925.3226-.5987.1608-.2067-.1623-.5358-.7343-.5624-.9819-.0268-.2474.3413-.3762.3923-.4566.1101-.1695.1118-.3009.0515-.404-.1778-.3043-.8963-.362-.9518-.4131-.7154-.6773-1.1419-1.4545-1.5214-2.24-.2061-.424-.4092-.8753-.6219-1.3079-.1312-.2663-.2697-.5313-.4236-.7936-.0922-.1569-.1877-.3142-.2851-.4722-.253-.4105-.519-.8256-.7751-1.2454-.2605-.4267-.5107-.8584-.7268-1.2906-.0845-.169-.1638-.3379-.2364-.5064-.126-.2931-.235-.5832-.3331-.8708-.1617-.4753-.3059-.9781-.4294-1.4348-.0715-.2759-.1393-.51-.2451-.7993-.0884-.2425-.1934-.4956-.3173-.7642-.055-.1208-.4065.1573-.5471.1166-.0204-.006-.0364-.0188-.0465-.0407-.1316-.2868-.265-.5935-.3923-.9236-.1349-.3502-.2629-.7271-.3702-1.1309-.10754-.4042-.19388-.8353-.24418-1.284-.04892-.4144-.06817-.9941-.03371-1.3778.02543-.2454.0521-.4812.08571-.7639.03384-.2779.07456-.5798.13428-.9089.0297-.1624.0641-.3317.1055-.50644.0627-.25436.5259.12004.6187-.12228.0413-.10728.0885-.2198.1411-.33647.1423-.31618.3265-.66351.5387-1.00424.2007-.32401.4258-.63744.6428-.9312.2117-.2901.4743-.63425.607-.89196.1526-.29867.296-.67117.2977-1.06917.0069-.24451-.0223-.51255-.0969-.81085.1507-.09677.3063-.19141.4649-.2809.2717-.15342.5529-.29199.8358-.4046.2877-.11459.5772-.20245.8598-.2535.2383-.04313.4713-.05996.695-.04544.1085.00697.1881.03811.2498.08002.2671.18536.1919.57049.5659.20181.1073-.10181-.2458-.46687-.0671-.58746.0576-.03895.1163-.07581.1728-.10967.1975-.12432.3731-.21649.5923-.32705.2096-.10623.4294-.21646.6466-.34572.2069-.12306.4113-.26316.6033-.43364.0185-.01659.03-.03807.0363-.06299.0385-.1525-.1235-.43333-.1128-.51081.0575-.36829.3671-.39783.6838-.32836.3174.06873.6356.23958.7263.24481.1289.00584.2535.00778.3749.00631.3372.00025.7121-.0469.9936-.08183 0 0-.0001.00001 0 0 .6103-.07279 1.281-.28641 1.9785-.35797.2615-.02569-.1128-.55881.1429-.60355a9.05123 9.05123 0 0 1 .5678-.07486c.9495-.09515 1.9319-.0368 2.8558.20034.2145.05493.4256.1193.6319.19313.2816.104-.0633.54025.0643.6144.5392.32506.8662-.5435 1.4098-.19901.1119.07247-.0675.45499-.0574.50509.0965.53324.3794.29058.6.0909.1016-.09398.1856-.17986.2159-.17714 1.1137.09632 1.438 1.17405 2.1777 1.70076.0851.06125.1771.11729.2783.16693.1239.06111.1591-.55255.4961-.34733.6781.42034 1.3164.95642 1.8625 1.58641.6417.72256 1.2422 1.76273 1.518 2.59576.3259.79592.4775 2.20201.2097 3.08637-.0297.1218-.0799.182-.1352.2062-.0711.0309-.1517.0036-.2216-.0305-.0798-.0392-.1461-.0874-.1663-.0795-.0357.0146-.0679.029-.097.0432-.6275.2755.2203.6963.2155.8568-.0328.8352-.7043 1.3094-.8192 1.8945-.0489.2398-.02.5176.1499.8815-.4647.5401-.9323 1.0243-1.3992 1.4806-.6129.5974-1.229 1.149-1.8534 1.6652-.6258.5167-1.2622.9973-1.911 1.4318-.6526.4379-1.3149.8226-1.9679 1.1485-.5618.2856-1.1428.5396-1.7576.7515-.0633.0217-.1268.043-.1907.0639-.0436.0154-.2696-.4406-.3552-.4081-1.0346.3886-.4146.9068-.4371 2.0953-.0006.0274-.0105.0471-.0281.0601-.1736.1286-1.0969-.3909-1.1769-.4283-.3231-.1527-.6085-.8674-.6912-.8826-.6692-.1059.8278 1.8647.2937 2.2446-.0191.0085-.2123-.4126-.2833-.4178-.028-.0022-.0531-.0001-.0759.005-.1571.0356-.2079.2194-.4061.192-.5221-.0748-1.3258-.9782-1.3997-.0706-.0071.1001.6531.9088.5161 1.3166-.0229.0681-.0681.1251-.1423.1656-.2069.112-1.0435.7255-1.3349.8161-.0541.0169-.1014.0139-.1426-.0023-.1449-.0569-.216-.2757-.2504-.3616-.0084-.0211-.0147-.0342-.0192-.0349-.0017 0-.0034-.0001-.0051-.0002-.9766-.049-.8757-.4209-1.6961-.9289-.8179-.5083.4583 1.1665.4586 1.4506-.0001.1761-.2894.2102-.5591.1947 0 0 .0001 0 0 0-.1649-.0094-.323-.037-.4036-.0611-.2122-.0636-.2284-.3994-.3859-.4102-1.0381-.0653.2824 1.0685.2428 1.4975-.032.3516-.2069.4588-.4453.4572-.4492-.0032-1.1257-.3921-1.4978-.2604-.1538.0545.1522.276.0549.3823-.094.1012-.1974.1653-.3039.2148-.3318.1542-.6988.1675-.8927.7176-.0248.0698.0098.4643-.0892.7007-.0696.1656-.205.2541-.4797.104-.0959-.0528-.2188-.4446-.4594-.3762-.2645.0748-.6365.2637-.8995.4933-.0946.0825-.1751.1699-.2319.2583-.1571.2468.4872.5529.0948.6111-.1752.0268-.187-.4445-.4985-.3679-.1851.0455-.4604.2367-.6928.4277-.1578.1293-.2963.2581-.3781.3374-.2015.1968.2378.4565.2422.4962.0215.2299-.1941.7479-.229.7821-.0535.0532-.1078.1064-.1628.1596-.3884.3758-.7784.7032-1.17115 1.026-.39907.3278-.79376.6435-1.1652.975-.37375.3335-.7242.6836-1.02254 1.0695-.29608.3827-.54046.8022-.69516 1.2556a3.471 3.471 0 0 0-.1072.3836c-.03485.1617.48574.225.48528.2518.0449.565-1.12917-.253-1.68722.0394.88322.1833.81389.3444.80277.6563-.00154.0483-.00159.1003.00383.1564.02148.2009.4371.1618.47442.1869.56133.3519-.23473.4101-.40235.4589-.61042.1406.07945.3939-.32056.515-.34754.1183-.83276-.1303-.94972.0977-.01656.0328-.02546.0753-.02507.1299.37096.1241 1.34631-.1811 1.50102.1426.15075.3104.21518.6766.23471 1.0728.02053.4186-.00854.8633-.04208 1.2962-.03661.4633-.0771.9142-.08481 1.2951-.00513.2379.00182.448.02534.6136.03787.2664.0842.4768.12891.6546.11076.4303.20231.669.2518 1.0586.00966.0737.02243.139.03768.1967.20207.7144.67984.2081 1.18309.54.10835.0706.1344.1523.102.2384-.13059.3615-1.28446.7756-1.5192.9874-.29035.2641.1034.1646-.02377.3658-.12593.2029-.47767.1091-.40998.3872.07001.29 1.05753.5929 1.43886.4396.81532-.3016 1.38178-1.0425 1.48713-.3362.00688.042-.44734.2073-.40115.3553.02996.0912.06235.181.09686.2693.31006.7891.80516 1.4837 1.30996 2.1663.1671.2258.3355.451.5015.6818.101.1401-.3438.4474-.2859.5353.6368.9119.8803-.014 1.845-.53-.5794.7327-.8504 1.365-.6643 1.8361.0711.1816.2099.3362.4164.45.4459.2404.6273-.3057 1.0709-.5348.1292-.0706.2789.4189.4395.1964.5099-.7336.6065-1.7309 1.127-1.1243.0242.0281-.2311.4425-.1352.5068.0432.0289.0855.0517.1271.0689.5685.2264.904-.5017 1.5954-.4525.244.015.5454.146.8769.2988.4655.2175 1 .4751 1.4056.5474-.0892 1.4555.664 1.15.9449.1425l.0297.0024c.4759.0367.9577-.0372 1.3971.0617.156.0339.0923.4623.115.5061.3774.6833.4904-.3143.5799-.364.3394-.1637.6657-.2197.9904-.2547.6723-.0723 1.3653-.0577 1.8948-.7356.0303-.0372-.2269-1.0142.2592-.3986.0359.0414-.1479.5893.3313.4641.1393-.0375.3276-.0486.538-.0662.5093-.0397 1.1636-.1335 1.4591-.6502.1092-.1784.0865-1.0876.6816-.6867.0816.0541.1797.3315.3162.4399.4206.322.0711-.5068.5939-.0686.0291.0239.061.0515.0959.0834.6595.6153 1.5249.8467 1.7983-.0894.0111-.0295-.3235-.7864-.137-.9116.3026-.2009.8138-.3975 1.1003-.655a.10483.10483 0 0 0 .0058-.0057c.1183-.1264-.2891-.4185-.2714-.4459.6604-.9407 1.4862-1.2493 2.4051-2.0308.0614-.053.1224-.1074.1837-.1647.187-.172.0432-1.1166.7422-1.1845.7753-.099 2.5597 1.7147 2.7558.2834.0187-.1653-.1741-.4637-.414-.7975-.5783-.8082-1.432-1.8029-.1357-1.8098.0261-.1044.0551-.2053.0877-.3052.1928-.5929.4921-1.1124.7883-1.6403.2975-.53.5917-1.0692.7536-1.6679.0866-.3201.1348-.6564.1234-1.0117-.0013-.0826-.7723-.557-.7156-.7162.0435-.1196.1706-.1868.2972-.2466.1287-.0607.2569-.1137.2931-.2014.2092-.4898.1873-1.0049.2008-1.5042.0066-.2441.0219-.4858.0774-.7261.0619-.2761.4662-.118.537-.4566.0388-.1912-.1093-.3645-.1916-.5574-.0651-.151-.0886-.3133.0517-.503.2421-.3238 1.4109-.5523 1.5906-1.0097-.8776-.1034-1.029-.322-1.1724-.7002-.0386-.1019-.0767-.2155-.1285-.3411-.0474-.1137-.4467-.0324-.4892-.0878-.1818-.2252.157-.39-.0453-.6053-.0486-.0522-.4302-.085-.4916-.129-.5354-.372.3602-.8514.5154-.9396.1158-.0638.1901-.1231.2365-.179.1904-.2304-.088-.3985.1024-.6132.2364-.2691.4984.1618.6484-.1606.1978-.4284.2517-.9472.2639-1.4471.0071-.283.0011-.5599.003-.8129-.001-.2795-.5083-.0776-.5203-.1176-.1226-.4872.248-1.011-.3359-1.3031-.0878-.0434-.1972-.0812-.333-.1121 2.5947-.5908-.2742-.324.1663-1.1555.0352-.0653 1.2621-.2995 1.4728-.0637.2106.2383-.1397.6605.17.9915.0294.0319.2414.1152.4885.2111.3665.1414.8098.313.854.352.5786.5173-1.2822.6575-1.3827.6859-1.0909.3349.1729.881.2591 1.0441.0548.0967.0967.1919.1291.2854.2036.5914.0272 1.1048.2501 1.6239.1646.3904 1.3627.4953 1.3267.7994-.0002.0022-.0006.0044-.001.0067-.1877 1.0313-1.9113 1.226-.529 2.3005a.3059.3059 0 0 0 .0264.0184c.3389.2087 1.5834.1603.4982.7667-.0702.0403-1.0791.4737-.5108.8465.0717.047.4577.0888.4845.1434.1159.2461.0017.413-.0523.612-.0267.1018-.0401.2128-.0087.3487.0972.4175.2364.9884.0246 1.4292-.0408.0869-.1481.1695-.282.2447-.2854.1611-.6905.2802-.827.3455-.5737.2609.1498.8424-.5075.927-.6579.0708-1.467-.5739-1.9973-.1181.8339.2368 1.681.5012 2.5184.7606.1371.0425.2741.0848.4107.1267-.194.6606-.4786 1.2884-.776 1.8999-.2997.6166-.6122 1.2174-.8655 1.8432-.0095.0235-.019.0471-.0283.0707-.0623.1589.505.2155.4497.3935-.1891.5965-.6346.9982-.9207 1.5178-.075.1361-.1392.28-.1867.4398-.1328.462-.0687 1.1339-.1102 1.6624-.0154.148-.0422.2922-.0873.4278-1.1865-.2508-1.4231.8536-1.9553 1.3949-.1821.1871-.4197-.011-.608.0723-.7072.3101.2891.6856.2974.9361.003.1564-.0347.2608-.1027.3273-.4067.3928-1.7837-.5721-2.2672.0243-.0237.0321.4418 1.3227.4258 1.4437-.0402.7424-.3653-.2397-.6701-.0696-.3852.2112-.746.3027-1.0322.5797-.129.1244-.2428.2854-.3435.5129-.0866.2111-.0206 1.14-.7122.9125-.0896-.0303-.3076-.375-.3559-.3689-.85.1258-.1379 1.1788-.2922 1.802-.0831.3334-.4451.3853-.7909.3287-.2966-.0476-.5833-.172-.6983-.2412-.6458-.3887.104-.383.0882-.4515-.196-.7778-.5484-.4107-.9061-.2891-.6543-1.0682-1.0462-.7748-.3683.1284.0763.0981.2761-.1421.3683-.1284.3161 1.2315-.1974 1.6814-1.2651.907-.4958-.369-.4954-1.0458-1.2036-.4976-.28.2093.0174.7875-.0547 1.1702-.0122.0632-.0347.1209-.0719.1705-.618.81-1.9257.3664-2.7208.6742-.2971.1146.1075.5077-.0959.602-.2167.0997-.4404.1191-.6632.1224-.3386.0052-.6716-.0265-1.0065.1302-.0512.0242.1477.4963-.0367.5275-.9538.1695-2.0072.0889-2.847-.0065-.3689-.0399-.7649-.0778-1.2129-.1027-.5127-.0269-1.2581.042-1.9432.0069-.3077-.015-.5907-.0475-.8226-.1075-.7511-.1913-1.5502-.6651-2.2713-1.0976-.5179-.308-1.0002-.5922-1.4621-.7232-.7209-.2155-.7945.2902-1.2506.4354-.3278.1-.6065-.0644-.80992-.3213-.35373-.4399-.46437-1.1351-.47342-1.2812-.00037-.0035.60254.26.45739-.1427.13595-.5462-.44801.1462-.45739.1427-.02588-.143-.97143-1.0136-1.21045-1.1188-.13801-.0522-.38947.3505-.45679.3152a8.11185 8.11185 0 0 1-.48079-.2781c-.98902-.616-1.82352-1.425-2.4511-2.3411-.24358-.3552-.45279-.72-.63895-1.1096-.00826-.0304.45668-.2764.43246-.3431-.2647-.7585-.83531-1.0308-1.39685-1.3355-.14951-.0857-.30033-.179-.4525-.3053-.43353-.3732-.6633-.7634-.65704-1.1864.00499-.3116.14073-.6369.42712-.9677-.16015-.2767-.21777-.6657-.21222-1.0489.00468-.3974.0766-.7869.13983-1.0648.12835-.5384-.8804-.4148-.91067-.4586a3.52213 3.52213 0 0 1-.07741-.1164c-.39377-.6233-.46034-1.1714-.43064-1.7095.02984-.5243.15143-1.0444.18332-1.6647a6.5948 6.5948 0 0 0 .00279-.0587c.01615-.3651-.02949-.9803-.08292-1.4921-.03909-.4026-.05649-.932-.05341-1.3358-.00139-.4314.11016-.7306.2021-1.0427.06741-.2268.12384-.4512.13377-.7367.00365-.0919-.45858-.1227-.4683-.1538-.30813-.8971.65426-.2156.88623-.3023.59784-.2062 1.00121-.3229 1.19618-.6873.08388-.1549.1312-.3543.1489-.6246.00191-.1911-1.13561-1.4698-1.00266-1.8703.09789-.3065.28661-.2424.4503-.2706.10124-.017.19293-.0678.25477-.256.01461-.0413-.28533-.2329-.0942-.4815.31346-.407.65755-.786 1.00477-1.14.48785-.4975.98105-.9461 1.42219-1.3829.13018-.1288.2559-.2567.37594-.3847.11271-.1179-.43246-.3659-.27489-.5434.24097-.2702.49183-.5314.73287-.7612.44431-.4258 1.03573-.9003 1.56414-1.2069.1371-.0811.27524-.1564.41406-.2253.25221-.1225.37027.2895.48979.342.71908.3206.46625-.7861.52333-.855a4.40931 4.40931 0 0 1 .20834-.2483c.4448-.4921.94253-.823 1.44743-1.1046.5212-.2904 1.0512-.5288 1.5525-.8397.3665-.2271.718-.493 1.039-.8454.0264-.03.0448-.2541.1053-.4784.0938-.3472.2863-.6939.77-.3295.0536.0395.8595.6595.7267-.0467-.0084-.0441-.4534-.3423-.1343-.4973l.0042-.0021c.3221-.1617.588-.7384 1.2923-.5646.127.0313.4552.2351.7036.2396.1876.0035.3294-.1068.3024-.4901-.0049-.0615-.4211-1.885.4711-1.0501.1234.1159.6333.8868.8368.6218.0382-.0497.0655-.1359.0774-.2695.0133-.1632-.3047-.2847-.1806-.5877.1816-.4474.7934-.5083.9293-1.1901.0054-.0273.0101-.0555.0139-.0849.0167-.1341-.1645-1.059.4675-.7081.099.055.268.4533.4298.3963.2886-.1008.5404-.2633.7858-.4391.41-.2936.8021-.6242 1.318-.7661.2641-.0734.5159.4456.8195.5277.0317.0085.0639.0123.0967.0102.3481-.0225.9378-.2243 1.0136-.6599.0751-.4352-.8309-1.1286-.4986-1.4694.0406-.0416.0816-.0825.123-.1227.6164-.5785 1.1997-.9541 1.7841-1.2885.5818-.331 1.1608-.6123 1.685-.9189.3106-.1816.6008-.3712.8523-.5781.1644-.1367-.2267-.3002-.019-.5131.0619-.0646.1233-.1335.183-.2048.2706-.3187.4999-.69755.6078-.89569.1187-.21148.0961-.15929.2295.06761.0665.10377.1775.22206.3356.28798.7466.388 1.1283-.2465 1.4494-.06804.1003-.00572-.4811.09674-.8651.17094-.1704.0115-.2967.027-.3161.0146-.5519-.27683-.2184-.43738-.4783-.74213-.0304-.03182-.0684-.05816-.1159-.07604-.0766-.0274-.3949.38075-.451.3592-.1841-.05917-.1923-.3627-.3904-.44617-.0732-.02891-.224.2027-.2993.24144-.015.00767-.0271.00781-.0354-.00318-.1256-.15561-.205-.38339-.2851-.81646-.0116-.04115.3317-.42552.1503-.52121-.1167-.05948-.2327-.16908-.3692-.26527-.2092-.14896-.4745-.26522-.7783-.09494-.154.08474-.3059.96441-.4637.3134-.0331-.13253.1771-1.16281-.2473-.3502a3.05513 3.05513 0 0 0-.0186.03793c-.1002.1412-.665 1.35185-.893.54867-.0607-.21337-.2637-1.09242-.4353-.94658-.0206.02302.0856.49979-.0444.5526-.0536.02103-.1076.03972-.1615.05673-.4127.12831-.8154.16245-1.1403.3664-.1194.06775.1847.51103.0036.59739-.0495.02359-.1037.04645-.1621.06903 0 .00001 0 0 0 0-.1363.06141-.0803.04931-.2306.08842-.1076.02687-.2477.05594-.4108.09043-.1722.03624-.3698.07829-.5733.12226l-.0502.01082c-.2546.05572-.2724-.39194-.3078-.4249-.5036-.45068-.406.19816-.414.45983-.0016.045-.0064.0787-.0181.09367-.1837.22684-.4132.35658-.6669.44994-.2774.10092-.6632.18582-.9628.27862-.1138.0319-.1922.0646-.2668.1254-.1037.0809.1681.4747.1618.5232-.0493.3872-.1745-.1035-.3204-.3078-.0329-.0461-.0671-.0775-.1011-.0806-.1668-.0161-.3225-.0001-.4636.0367-.1551.0405-.2923.106-.4081.1806-.1069.0688-.1954.1452-.2657.2164-.0101.0103-.012.0255-.0078.0442.0313.1257.3264.4271.2758.4774-.0502.0537-.0889.098-.1133.1277-.0659.071.0487-.035-.0234.0294-.0828.1004.1824-.2345.1888-.3056.0646-.1394.1127-.3083.1202-.443.0089-.1376-.0222-.2333-.0765-.2518-.0131-.0047-.0275-.0053-.0429-.0017-.0604.0241-.4759-.0355-.572-.0373-.2764.0102-.2912.0863-.2035.1731.1264.1264.4663.2767.5177.3279.0828.0819.1327.1607.1602.237.0934.2531-.0695.492-.0664.8234.0004.0199.0035.0378.0098.0522.0472.0747.0735-.0088.1096.079.0365.0554.0716.1331.1167.2492.0439.1128.0979.2617.1681.45.0693.1864.1546.411.254.6711.0999.2619.214.5597.3347.8892.1153.3165.2719.7553.3783 1.1041.1208.4163.2082.7271.3267 1.0904.0228.0705.0456.1399.0686.2088.1014.3021.2018.5969.3029.8865.1321.3782.2656.7476.4048 1.1115.1447.3783.2958.7508.4589 1.1207.1646.3732.3415.7438.5372 1.1148.1953.369.3912.711.6344 1.0921.1659.2597.3389.519.5222.7803.0954.1368.4735-.3066.5616-.1927.493.6548.9245 1.3383 1.3516 2.0183.5381.8569 1.07 1.7092 1.7086 2.4893.093.1151.411-.3579.5748-.1837.0565.0591.1125.1227.1673.19.2738.3367.5167.7639.6334 1.1753.0693.2404-.4848.2411-.407.4783.181.5533.4973 1.0603.9003 1.468.1684.1685.3849-.413.5713-.2071a.25445.25445 0 0 1 .0126.0152c.6789.8774 1.3686 1.7149 1.9912 2.5983.5681.8058 1.0799 1.6496 1.4926 2.6117.0363.0846-.2248.4277-.3481.7023-.0783.1738-.101.3203.0399.3532.2407-.189.5045-.4324.7518-.6454.7182.6976 1.3197 1.3211 2.0315 2.0529.8667.8863 1.6798 1.7793 2.4906 2.6315.6501.6836 1.301 1.344 1.9751 1.9567.0945.0855.3122-.4975.496-.3353.1262.1111.2533.2186.3807.3243.8511.7048 1.698 1.3098 2.3475 2.2103.0744.1031.1474.2108.2173.3228.0773.1213-.5595.9298-.1374 1.0259.0753.0185.6523.2278.8963.1138.0344-.0184.1973-.4795.3602-.3961.3817.1981.7522.4086 1.1085.6276.5251.3229 1.0206.6643 1.4891 1.0229.1277.0979-.2019.52-.1095.5947.2361.1866.5106.2894.7879.3648.5121.1395 1.0099.1814 1.4364.5358.453.3632.1878 1.2194.4312 2.1073.0374.1267.4022.1612.4136.6642.0341 1.2696-.2259 2.6517-.1731 4.0054.0121.2956.7319-.0146.302.6868-.0295.0492-.5678.2695-.716.4981-.1037.1597.044.6814-.1671.8813-.2164.1985-.403-.2449-.7527-.0302-.3558.2131-.2758.8165-.9691.7903ZM3.17936 42.1595c.06929-.0729.08483-.131.06321-.1767-.09971-.2104-1.01043-.163-1.01704.0932-.00096.0422.02309.0899.08007.1418.02508.0212.85203-.0341.87376-.0583Zm36.44074-.6497c-.9233.2016.0143.9712.7246.8493.7146-.1414-.4418-.9208-.7246-.8493Zm.8147-5.4129c-.7084.4912 1.7809 1.0302 1.3827.2617-.0225-.0456-1.3416-.2922-1.3827-.2617Zm6.8342 14.96c-.0002.025.2642.0963.2746.0733.2301-.5375-.2709-.674-.2746-.0733Zm-6.9412-20.1541c-.3544.1583.0035.7077.4469.5139.3577-.159-.0048-.7153-.4469-.5139Zm-25.0763-4.6115c.0199.0188.2146-.084.1263-.2068-.2851-.395-.4612-.1096-.1263.2068Zm24.5257-4.1536c.1969 1.3453-1.7952 2.3588-1.7809 1.0451-.0033-.2458.7553.3813.8845.0461.2281-.6445-1.1389-.7092-.5975-1.428.0975-.1465 1.4878.2476 1.4973.3384-.0011-.0005-.0022-.0011-.0034-.0016ZM5.3038 41.7284c.02231-.0095.02077-.3126-.00257-.3181-.58178-.1281-.57799.5023.00257.3181Zm21.0528-21.8172c.043.0314.6422-.3343.6341-.3854-.2376-.973-1.4542-.2337-.6341.3854Zm-7.6601 33.5017c.3237-.5573.6738-.6172.9341.1024-.3203-.0387-.6335-.0522-.9341-.1024Z"/></svg>