<svg width="50" height="59" viewBox="0 0 50 59" fill="none" xmlns="http://www.w3.org/2000/svg">
<path d="M46.707 58.4964C45.9175 58.4591 45.0322 58.2725 44.2027 57.9883C43.3435 57.6962 42.5458 57.3038 41.9067 56.9173C41.5143 56.6782 41.8493 56.473 41.5916 56.2941C41.0959 55.9443 40.5342 55.8485 40.0917 55.4548C40.0674 55.4328 40.0596 55.4051 40.0625 55.3736C40.0779 55.2163 40.3603 54.9623 40.2328 54.8571C39.4019 54.1697 38.5053 53.7795 37.7088 53.1247C37.4078 52.8765 37.1138 52.6273 36.8252 52.3772C35.7722 51.4639 34.7924 50.5411 33.8527 49.6173C32.9133 48.6932 32.0155 47.7683 31.1381 46.8456C30.2686 45.9311 29.4194 45.0177 28.583 44.122C28.3318 43.8542 28.0794 43.58 27.823 43.2957C27.2588 42.6717 26.7405 41.9144 26.2055 41.1743C25.7243 40.5092 25.2324 39.8613 24.6783 39.3477C24.5415 39.2213 24.2729 39.5894 24.2224 39.5858C23.4374 39.5147 24.2426 39.0866 24.1063 38.7339C24.0425 38.5688 23.9735 38.4057 23.8999 38.2448C23.3729 37.0941 22.6112 36.0515 21.824 35.1968C21.7877 35.1575 21.7514 35.1186 21.715 35.0801C21.3165 34.6584 20.9454 35.6419 21.0033 34.8817C21.0068 34.8296 21.4728 34.6729 21.4213 34.5159C21.3034 34.161 20.8441 33.6592 20.7165 33.4119C20.4725 32.9347 20.4189 32.8655 20.1387 32.4503C20.063 32.3363 19.992 32.2132 19.9228 32.0846C19.6454 31.5691 19.4 30.9685 19.0053 30.53C18.8988 30.4138 18.6128 30.8526 18.4066 30.6908C18.1999 30.5285 17.8708 29.9565 17.8442 29.7089C17.8174 29.4615 18.1855 29.3327 18.2365 29.2523C18.3466 29.0828 18.3483 28.9514 18.288 28.8483C18.1102 28.544 17.3917 28.4863 17.3362 28.4352C16.6208 27.7579 16.1943 26.9807 15.8148 26.1952C15.6087 25.7712 15.4056 25.3199 15.1929 24.8873C15.0617 24.621 14.9232 24.356 14.7693 24.0937C14.6771 23.9368 14.5816 23.7795 14.4842 23.6215C14.2312 23.211 13.9652 22.7959 13.7091 22.3761C13.4486 21.9494 13.1984 21.5177 12.9823 21.0855C12.8978 20.9165 12.8185 20.7476 12.7459 20.5791C12.6199 20.286 12.5109 19.9959 12.4128 19.7083C12.2511 19.233 12.1069 18.7302 11.9834 18.2735C11.9834 18.2735 11.9834 18.2735 11.9834 18.2735C11.9119 17.9976 11.8441 17.7635 11.7383 17.4742C11.6499 17.2317 11.5449 16.9786 11.421 16.71C11.366 16.5892 11.0145 16.8673 10.8739 16.8266C10.8535 16.8206 10.8375 16.8078 10.8274 16.7859C10.6958 16.4991 10.5624 16.1924 10.4351 15.8623C10.3002 15.5121 10.1722 15.1352 10.0649 14.7314C9.95736 14.3272 9.87102 13.8961 9.82072 13.4474C9.7718 13.033 9.75255 12.4533 9.78701 12.0696C9.81244 11.8242 9.83911 11.5884 9.87272 11.3057C9.90656 11.0278 9.94728 10.7259 10.007 10.3968C10.0367 10.2344 10.0711 10.0651 10.1125 9.89036C10.1752 9.636 10.6384 10.0104 10.7312 9.76808C10.7725 9.6608 10.8197 9.54828 10.8723 9.43161C11.0146 9.11543 11.1988 8.7681 11.411 8.42737C11.6117 8.10336 11.8368 7.78993 12.0538 7.49617C12.2655 7.20607 12.5281 6.86192 12.6608 6.60421C12.8134 6.30554 12.9568 5.93304 12.9585 5.53504C12.9654 5.29053 12.9362 5.02249 12.8616 4.72419C13.0123 4.62742 13.1679 4.53278 13.3265 4.44329C13.5982 4.28987 13.8794 4.1513 14.1623 4.03869C14.45 3.9241 14.7395 3.83624 15.0221 3.78519C15.2604 3.74206 15.4934 3.72523 15.7171 3.73975C15.8256 3.74672 15.9052 3.77786 15.9669 3.81977C16.234 4.00513 16.1588 4.39026 16.5328 4.02158C16.6401 3.91977 16.287 3.55471 16.4657 3.43412C16.5233 3.39517 16.582 3.35831 16.6385 3.32445C16.836 3.20013 17.0116 3.10796 17.2308 2.9974C17.4404 2.89117 17.6602 2.78094 17.8774 2.65168C18.0843 2.52862 18.2887 2.38852 18.4807 2.21804C18.4992 2.20145 18.5107 2.17997 18.517 2.15505C18.5555 2.00255 18.3935 1.72172 18.4042 1.64424C18.4617 1.27595 18.7713 1.24641 19.088 1.31588C19.4054 1.38461 19.7236 1.55546 19.8143 1.56069C19.9432 1.56653 20.0678 1.56847 20.1892 1.567C20.5264 1.56725 20.9013 1.5201 21.1828 1.48517C21.1828 1.48517 21.1827 1.48518 21.1828 1.48517C21.7931 1.41238 22.4638 1.19876 23.1613 1.1272C23.4228 1.10151 23.0485 0.568385 23.3042 0.523648C23.4919 0.492844 23.6816 0.467761 23.872 0.448788C24.8215 0.353642 25.8039 0.411988 26.7278 0.649133C26.9423 0.704057 27.1534 0.768432 27.3597 0.842261C27.6413 0.946257 27.2964 1.38251 27.424 1.45666C27.9632 1.78172 28.2902 0.913154 28.8338 1.25765C28.9457 1.33012 28.7663 1.71264 28.7764 1.76274C28.8729 2.29598 29.1558 2.05332 29.3764 1.85364C29.478 1.75966 29.562 1.67378 29.5923 1.6765C30.706 1.77282 31.0303 2.85055 31.77 3.37726C31.8551 3.43851 31.9471 3.49455 32.0483 3.54419C32.1722 3.6053 32.2074 2.99164 32.5444 3.19686C33.2225 3.6172 33.8608 4.15328 34.4069 4.78327C35.0486 5.50583 35.6491 6.546 35.9249 7.37903C36.2508 8.17495 36.4024 9.58104 36.1346 10.4654C36.1049 10.5872 36.0547 10.6474 35.9994 10.6716C35.9283 10.7025 35.8477 10.6752 35.7778 10.6411C35.698 10.6019 35.6317 10.5537 35.6115 10.5616C35.5758 10.5762 35.5436 10.5906 35.5145 10.6048C34.887 10.8803 35.7348 11.3011 35.73 11.4616C35.6972 12.2968 35.0257 12.771 34.9108 13.3561C34.8619 13.5959 34.8908 13.8737 35.0607 14.2376C34.596 14.7777 34.1284 15.2619 33.6615 15.7182C33.0486 16.3156 32.4325 16.8672 31.8081 17.3834C31.1823 17.9001 30.5459 18.3807 29.8971 18.8152C29.2445 19.2531 28.5822 19.6378 27.9292 19.9637C27.3674 20.2493 26.7864 20.5033 26.1716 20.7152C26.1083 20.7369 26.0448 20.7582 25.9809 20.7791C25.9373 20.7945 25.7113 20.3385 25.6257 20.371C24.5911 20.7596 25.2111 21.2778 25.1886 22.4663C25.188 22.4937 25.1781 22.5134 25.1605 22.5264C24.9869 22.655 24.0636 22.1355 23.9836 22.0981C23.6605 21.9454 23.3751 21.2307 23.2924 21.2155C22.6232 21.1096 24.1202 23.0802 23.5861 23.4601C23.567 23.4686 23.3738 23.0475 23.3028 23.0423C23.2748 23.0401 23.2497 23.0422 23.2269 23.0473C23.0698 23.0829 23.019 23.2667 22.8208 23.2393C22.2987 23.1645 21.495 22.2611 21.4211 23.1687C21.414 23.2688 22.0742 24.0775 21.9372 24.4853C21.9143 24.5534 21.8691 24.6104 21.7949 24.6509C21.588 24.7629 20.7514 25.3764 20.46 25.467C20.4059 25.4839 20.3586 25.4809 20.3174 25.4647C20.1725 25.4078 20.1014 25.189 20.067 25.1031C20.0586 25.082 20.0523 25.0689 20.0478 25.0682C20.0461 25.0682 20.0444 25.0681 20.0427 25.068C19.0661 25.019 19.167 24.6471 18.3466 24.1391C17.5287 23.6308 18.8049 25.3056 18.8052 25.5897C18.8051 25.7658 18.5158 25.7999 18.2461 25.7844C18.2461 25.7844 18.2462 25.7844 18.2461 25.7844C18.0812 25.775 17.9231 25.7474 17.8425 25.7233C17.6303 25.6597 17.6141 25.3239 17.4566 25.3131C16.4185 25.2478 17.739 26.3816 17.6994 26.8106C17.6674 27.1622 17.4925 27.2694 17.2541 27.2678C16.8049 27.2646 16.1284 26.8757 15.7563 27.0074C15.6025 27.0619 15.9085 27.2834 15.8112 27.3897C15.7172 27.4909 15.6138 27.555 15.5073 27.6045C15.1755 27.7587 14.8085 27.772 14.6146 28.3221C14.5898 28.3919 14.6244 28.7864 14.5254 29.0228C14.4558 29.1884 14.3204 29.2769 14.0457 29.1268C13.9498 29.074 13.8269 28.6822 13.5863 28.7506C13.3218 28.8254 12.9498 29.0143 12.6868 29.2439C12.5922 29.3264 12.5117 29.4138 12.4549 29.5022C12.2978 29.749 12.9421 30.0551 12.5497 30.1133C12.3745 30.1401 12.3627 29.6688 12.0512 29.7454C11.8661 29.7909 11.5908 29.9821 11.3584 30.1731C11.2006 30.3024 11.0621 30.4312 10.9803 30.5105C10.7788 30.7073 11.2181 30.967 11.2225 31.0067C11.244 31.2366 11.0284 31.7546 10.9935 31.7888C10.94 31.842 10.8857 31.8952 10.8307 31.9484C10.4423 32.3242 10.0523 32.6516 9.65955 32.9744C9.26048 33.3022 8.86579 33.6179 8.49435 33.9494C8.1206 34.2829 7.77015 34.633 7.47181 35.0189C7.17573 35.4016 6.93135 35.8211 6.77665 36.2745C6.73367 36.4003 6.6978 36.528 6.66945 36.6581C6.6346 36.8198 7.15519 36.8831 7.15473 36.9099C7.19963 37.4749 6.02556 36.6569 5.46751 36.9493C6.35073 37.1326 6.2814 37.2937 6.27028 37.6056C6.26874 37.6539 6.26869 37.7059 6.27411 37.762C6.29559 37.9629 6.71121 37.9238 6.74853 37.9489C7.30986 38.3008 6.5138 38.359 6.34618 38.4078C5.73576 38.5484 6.42563 38.8017 6.02562 38.9228C5.67808 39.0411 5.19286 38.7925 5.0759 39.0205C5.05934 39.0533 5.05044 39.0958 5.05083 39.1504C5.42179 39.2745 6.39714 38.9693 6.55185 39.293C6.7026 39.6034 6.76703 39.9696 6.78656 40.3658C6.80709 40.7844 6.77802 41.2291 6.74448 41.662C6.70787 42.1253 6.66738 42.5762 6.65967 42.9571C6.65454 43.195 6.66149 43.4051 6.68501 43.5707C6.72288 43.8371 6.76921 44.0475 6.81392 44.2253C6.92468 44.6556 7.01623 44.8943 7.06572 45.2839C7.07538 45.3576 7.08815 45.4229 7.1034 45.4806C7.30547 46.195 7.78324 45.6887 8.28649 46.0206C8.39484 46.0912 8.42089 46.1729 8.38849 46.259C8.2579 46.6205 7.10403 47.0346 6.86929 47.2464C6.57894 47.5105 6.97269 47.411 6.84552 47.6122C6.71959 47.8151 6.36785 47.7213 6.43554 47.9994C6.50555 48.2894 7.49307 48.5923 7.8744 48.439C8.68972 48.1374 9.25618 47.3965 9.36153 48.1028C9.36841 48.1448 8.91419 48.3101 8.96038 48.4581C8.99034 48.5493 9.02273 48.6391 9.05724 48.7274C9.3673 49.5165 9.8624 50.2111 10.3672 50.8937C10.5343 51.1195 10.7027 51.3447 10.8687 51.5755C10.9697 51.7156 10.5249 52.0229 10.5828 52.1108C11.2196 53.0227 11.4631 52.0968 12.4278 51.5808C11.8484 52.3135 11.5774 52.9458 11.7635 53.4169C11.8346 53.5985 11.9734 53.7531 12.1799 53.8669C12.6258 54.1073 12.8072 53.5612 13.2508 53.3321C13.38 53.2615 13.5297 53.751 13.6903 53.5285C14.2002 52.7949 14.2968 51.7976 14.8173 52.4042C14.8415 52.4323 14.5862 52.8467 14.6821 52.911C14.7253 52.9399 14.7676 52.9627 14.8092 52.9799C15.3777 53.2063 15.7132 52.4782 16.4046 52.5274C16.6486 52.5424 16.95 52.6734 17.2815 52.8262C17.747 53.0437 18.2815 53.3013 18.6871 53.3736C18.5979 54.8291 19.3511 54.5236 19.632 53.5161C19.6419 53.5169 19.6518 53.5177 19.6617 53.5185C20.1376 53.5552 20.6194 53.4813 21.0588 53.5802C21.2148 53.6141 21.1511 54.0425 21.1738 54.0863C21.5512 54.7696 21.6642 53.772 21.7537 53.7223C22.0931 53.5586 22.4194 53.5026 22.7441 53.4676C23.4164 53.3953 24.1094 53.4099 24.6389 52.732C24.6692 52.6948 24.412 51.7178 24.8981 52.3334C24.934 52.3748 24.7502 52.9227 25.2294 52.7975C25.3687 52.76 25.557 52.7489 25.7674 52.7313C26.2767 52.6916 26.931 52.5978 27.2265 52.0811C27.3357 51.9027 27.313 50.9935 27.9081 51.3944C27.9897 51.4485 28.0878 51.7259 28.2243 51.8343C28.6449 52.1563 28.2954 51.3275 28.8182 51.7657C28.8473 51.7896 28.8792 51.8172 28.9141 51.8491C29.5736 52.4644 30.439 52.6958 30.7124 51.7597C30.7235 51.7302 30.3889 50.9733 30.5754 50.8481C30.878 50.6472 31.3892 50.4506 31.6757 50.1931C31.6778 50.1912 31.6797 50.1893 31.6815 50.1874C31.7998 50.061 31.3924 49.7689 31.4101 49.7415C32.0705 48.8008 32.8963 48.4922 33.8152 47.7107C33.8766 47.6577 33.9376 47.6033 33.9989 47.546C34.1859 47.374 34.0421 46.4294 34.7411 46.3615C35.5164 46.2625 37.3008 48.0762 37.4969 46.6449C37.5156 46.4796 37.3228 46.1812 37.0829 45.8474C36.5046 45.0392 35.6509 44.0445 36.9472 44.0376C36.9733 43.9332 37.0023 43.8323 37.0349 43.7324C37.2277 43.1395 37.527 42.62 37.8232 42.0921C38.1207 41.5621 38.4149 41.0229 38.5768 40.4242C38.6634 40.1041 38.7116 39.7678 38.7002 39.4125C38.6989 39.3299 37.9279 38.8555 37.9846 38.6963C38.0281 38.5767 38.1552 38.5095 38.2818 38.4497C38.4105 38.389 38.5387 38.336 38.5749 38.2483C38.7841 37.7585 38.7622 37.2434 38.7757 36.7441C38.7823 36.5 38.7976 36.2583 38.8531 36.018C38.915 35.7419 39.3193 35.9 39.3901 35.5614C39.4289 35.3702 39.2808 35.1969 39.1985 35.004C39.1334 34.853 39.1099 34.6907 39.2502 34.501C39.4923 34.1772 40.6611 33.9487 40.8408 33.4913C39.9632 33.3879 39.8118 33.1693 39.6684 32.7911C39.6298 32.6892 39.5917 32.5756 39.5399 32.45C39.4925 32.3363 39.0932 32.4176 39.0507 32.3622C38.8689 32.137 39.2077 31.9722 39.0054 31.7569C38.9568 31.7047 38.5752 31.6719 38.5138 31.6279C37.9784 31.2559 38.874 30.7765 39.0292 30.6883C39.145 30.6245 39.2193 30.5652 39.2657 30.5093C39.4561 30.2789 39.1777 30.1108 39.3681 29.8961C39.6045 29.627 39.8665 30.0579 40.0165 29.7355C40.2143 29.3071 40.2682 28.7883 40.2804 28.2884C40.2875 28.0054 40.2815 27.7285 40.2834 27.4755C40.2824 27.196 39.7751 27.3979 39.7631 27.3579C39.6405 26.8707 40.0111 26.3469 39.4272 26.0548C39.3394 26.0114 39.23 25.9736 39.0942 25.9427C41.6889 25.3519 38.82 25.6187 39.2605 24.7872C39.2957 24.7219 40.5226 24.4877 40.7333 24.7235C40.9439 24.9618 40.5936 25.384 40.9033 25.715C40.9327 25.7469 41.1447 25.8302 41.3918 25.9261C41.7583 26.0675 42.2016 26.2391 42.2458 26.2781C42.8244 26.7954 40.9636 26.9356 40.8631 26.964C39.7722 27.2989 41.036 27.845 41.1222 28.0081C41.177 28.1048 41.2189 28.2 41.2513 28.2935C41.4549 28.8849 41.2785 29.3983 41.5014 29.9174C41.666 30.3078 42.8641 30.4127 42.8281 30.7168C42.8279 30.719 42.8275 30.7212 42.8271 30.7235C42.6394 31.7548 40.9158 31.9495 42.2981 33.024C42.3062 33.0303 42.315 33.0365 42.3245 33.0424C42.6634 33.2511 43.9079 33.2027 42.8227 33.8091C42.7525 33.8494 41.7436 34.2828 42.3119 34.6556C42.3836 34.7026 42.7696 34.7444 42.7964 34.799C42.9123 35.0451 42.7981 35.212 42.7441 35.411C42.7174 35.5128 42.704 35.6238 42.7354 35.7597C42.8326 36.1772 42.9718 36.7481 42.76 37.1889C42.7192 37.2758 42.6119 37.3584 42.478 37.4336C42.1926 37.5947 41.7875 37.7138 41.651 37.7791C41.0773 38.04 41.8008 38.6215 41.1435 38.7061C40.4856 38.7769 39.6765 38.1322 39.1462 38.588C39.9801 38.8248 40.8272 39.0892 41.6646 39.3486C41.8017 39.3911 41.9387 39.4334 42.0753 39.4753C41.8813 40.1359 41.5967 40.7637 41.2993 41.3752C40.9996 41.9918 40.6871 42.5926 40.4338 43.2184C40.4243 43.2419 40.4148 43.2655 40.4055 43.2891C40.3432 43.448 40.9105 43.5046 40.8552 43.6826C40.6661 44.2791 40.2206 44.6808 39.9345 45.2004C39.8595 45.3365 39.7953 45.4804 39.7478 45.6402C39.615 46.1022 39.6791 46.7741 39.6376 47.3026C39.6222 47.4506 39.5954 47.5948 39.5503 47.7304C38.3638 47.4796 38.1272 48.584 37.595 49.1253C37.4129 49.3124 37.1753 49.1143 36.987 49.1976C36.2798 49.5077 37.2761 49.8832 37.2844 50.1337C37.2874 50.2901 37.2497 50.3945 37.1817 50.461C36.775 50.8538 35.398 49.8889 34.9145 50.4853C34.8908 50.5174 35.3563 51.808 35.3403 51.929C35.3001 52.6714 34.975 51.6893 34.6702 51.8594C34.285 52.0706 33.9242 52.1621 33.638 52.4391C33.509 52.5635 33.3952 52.7245 33.2945 52.952C33.2079 53.1631 33.2739 54.092 32.5823 53.8645C32.4927 53.8342 32.2747 53.4895 32.2264 53.4956C31.3764 53.6214 32.0885 54.6744 31.9342 55.2976C31.8511 55.631 31.4891 55.6829 31.1433 55.6263C30.8467 55.5787 30.56 55.4543 30.445 55.3851C29.7992 54.9964 30.549 55.0021 30.5332 54.9336C30.3372 54.1558 29.9848 54.5229 29.6271 54.6445C28.9728 53.5763 28.5809 53.8697 29.2588 54.7729C29.3351 54.871 29.5349 54.6308 29.6271 54.6445C29.9432 55.876 29.4297 56.3259 28.362 55.5515C27.8662 55.1825 27.8666 54.5057 27.1584 55.0539C26.8784 55.2632 27.1758 55.8414 27.1037 56.2241C27.0915 56.2873 27.069 56.345 27.0318 56.3946C26.4138 57.2046 25.1061 56.761 24.311 57.0688C24.0139 57.1834 24.4185 57.5765 24.2151 57.6708C23.9984 57.7705 23.7747 57.7899 23.5519 57.7932C23.2133 57.7984 22.8803 57.7667 22.5454 57.9234C22.4942 57.9476 22.6931 58.4197 22.5087 58.4509C21.5549 58.6204 20.5015 58.5398 19.6617 58.4444C19.2928 58.4045 18.8968 58.3666 18.4488 58.3417C17.9361 58.3148 17.1907 58.3837 16.5056 58.3486C16.1979 58.3336 15.9149 58.3011 15.683 58.2411C14.9319 58.0498 14.1328 57.576 13.4117 57.1435C12.8938 56.8355 12.4115 56.5513 11.9496 56.4203C11.2287 56.2048 11.1551 56.7105 10.699 56.8557C10.3712 56.9557 10.0925 56.7913 9.88908 56.5344C9.53535 56.0945 9.42471 55.3993 9.41566 55.2532C9.41529 55.2497 10.0182 55.5132 9.87305 55.1105C10.009 54.5643 9.42504 55.2567 9.41566 55.2532C9.38978 55.1102 8.44423 54.2396 8.20521 54.1344C8.0672 54.0822 7.81574 54.4849 7.74842 54.4496C7.58532 54.3626 7.42494 54.2698 7.26763 54.1715C6.27861 53.5555 5.44411 52.7465 4.81653 51.8304C4.57295 51.4752 4.36374 51.1104 4.17758 50.7208C4.16932 50.6904 4.63426 50.4444 4.61004 50.3777C4.34534 49.6192 3.77473 49.3469 3.21319 49.0422C3.06368 48.9565 2.91286 48.8632 2.76069 48.7369C2.32716 48.3637 2.09739 47.9735 2.10365 47.5505C2.10864 47.2389 2.24438 46.9136 2.53077 46.5828C2.37062 46.3061 2.313 45.9171 2.31855 45.5339C2.32323 45.1365 2.39515 44.747 2.45838 44.4691C2.58673 43.9307 1.57798 44.0543 1.54771 44.0105C1.52059 43.9714 1.4948 43.9326 1.4703 43.8941C1.07653 43.2708 1.00996 42.7227 1.03966 42.1846C1.0695 41.6603 1.19109 41.1402 1.22298 40.5199C1.22399 40.5003 1.22493 40.4809 1.22577 40.4612C1.24192 40.0961 1.19628 39.4809 1.14285 38.9691C1.10376 38.5665 1.08636 38.0371 1.08944 37.6333C1.08805 37.2019 1.1996 36.9027 1.29154 36.5906C1.35895 36.3638 1.41538 36.1394 1.42531 35.8539C1.42896 35.762 0.966726 35.7312 0.957007 35.7001C0.648883 34.803 1.61127 35.4845 1.84324 35.3978C2.44108 35.1916 2.84445 35.0749 3.03942 34.7105C3.1233 34.5556 3.17062 34.3562 3.18832 34.0859C3.19023 33.8948 2.05271 32.6161 2.18566 32.2156C2.28355 31.9091 2.47227 31.9732 2.63596 31.945C2.7372 31.928 2.82889 31.8772 2.89073 31.689C2.90534 31.6477 2.6054 31.4561 2.79653 31.2075C3.10999 30.8005 3.45408 30.4215 3.8013 30.0675C4.28915 29.57 4.78235 29.1214 5.22349 28.6846C5.35367 28.5558 5.47939 28.4279 5.59943 28.2999C5.71214 28.182 5.16697 27.934 5.32454 27.7565C5.56551 27.4863 5.81637 27.2251 6.05741 26.9953C6.50172 26.5695 7.09314 26.095 7.62155 25.7884C7.75865 25.7073 7.89679 25.632 8.03561 25.5631C8.28782 25.4406 8.40588 25.8526 8.5254 25.9051C9.24448 26.2257 8.99165 25.119 9.04873 25.0501C9.11659 24.9629 9.18614 24.8803 9.25707 24.8018C9.70187 24.3097 10.1996 23.9788 10.7045 23.6972C11.2257 23.4068 11.7557 23.1684 12.257 22.8575C12.6235 22.6304 12.975 22.3645 13.296 22.0121C13.3224 21.9821 13.3408 21.758 13.4013 21.5337C13.4951 21.1865 13.6876 20.8398 14.1713 21.2042C14.2249 21.2437 15.0308 21.8637 14.898 21.1575C14.8896 21.1134 14.4446 20.8152 14.7637 20.6602C14.7651 20.6595 14.7665 20.6588 14.7679 20.6581C14.7679 20.6581 14.7679 20.6581 14.7679 20.6581C15.09 20.4964 15.3559 19.9197 16.0602 20.0935C16.1872 20.1248 16.5154 20.3286 16.7638 20.3331C16.9514 20.3366 17.0932 20.2263 17.0662 19.843C17.0613 19.7815 16.6451 17.958 17.5373 18.7929C17.6607 18.9088 18.1706 19.6797 18.3741 19.4147C18.4123 19.365 18.4396 19.2788 18.4515 19.1452C18.4648 18.982 18.1468 18.8605 18.2709 18.5575C18.4525 18.1101 19.0643 18.0492 19.2002 17.3674C19.2056 17.3401 19.2103 17.3119 19.2141 17.2825C19.2308 17.1484 19.0496 16.2235 19.6816 16.5744C19.7806 16.6294 19.9496 17.0277 20.1114 16.9707C20.4 16.8699 20.6518 16.7074 20.8972 16.5316C21.3072 16.238 21.6993 15.9074 22.2152 15.7655C22.4793 15.6921 22.7311 16.2111 23.0347 16.2932C23.0664 16.3017 23.0986 16.3055 23.1314 16.3034C23.4795 16.2809 24.0692 16.0791 24.145 15.6435C24.2201 15.2083 23.3141 14.5149 23.6464 14.1741C23.687 14.1325 23.728 14.0916 23.7694 14.0514C24.3858 13.4729 24.9691 13.0973 25.5535 12.7629C26.1353 12.4319 26.7143 12.1506 27.2385 11.844C27.5491 11.6624 27.8393 11.4728 28.0908 11.2659C28.2552 11.1292 27.8641 10.9657 28.0718 10.7528C28.1337 10.6882 28.1951 10.6193 28.2548 10.548C28.5254 10.2293 28.7547 9.85045 28.8626 9.65231C28.9813 9.44083 28.9587 9.49302 29.0921 9.71992C29.1586 9.82369 29.2696 9.94198 29.4277 10.0079C30.1743 10.3959 30.556 9.7614 30.8771 9.93986C30.9774 9.93414 30.396 10.0366 30.012 10.1108C29.8416 10.1223 29.7153 10.1378 29.6959 10.1254C29.144 9.84857 29.4775 9.68802 29.2176 9.38327C29.1872 9.35145 29.1492 9.32511 29.1017 9.30723C29.0251 9.27983 28.7068 9.68798 28.6507 9.66643C28.4666 9.60726 28.4584 9.30373 28.2603 9.22026C28.1871 9.19135 28.0363 9.42296 27.961 9.4617C27.946 9.46937 27.9339 9.46951 27.9256 9.45852C27.8 9.30291 27.7206 9.07513 27.6405 8.64206C27.6289 8.60091 27.9722 8.21654 27.7908 8.12085C27.6741 8.06137 27.5581 7.95177 27.4216 7.85558C27.2124 7.70662 26.9471 7.59036 26.6433 7.76064C26.4893 7.84538 26.3374 8.72505 26.1796 8.07404C26.1465 7.94151 26.3567 6.91123 25.9323 7.72384C25.9262 7.73606 25.92 7.7487 25.9137 7.76177C25.8135 7.90297 25.2487 9.11362 25.0207 8.31044C24.96 8.09707 24.757 7.21802 24.5854 7.36386C24.5648 7.38688 24.671 7.86365 24.541 7.91646C24.4874 7.93749 24.4334 7.95618 24.3795 7.97319C23.9668 8.1015 23.5641 8.13564 23.2392 8.33959C23.1198 8.40734 23.4239 8.85062 23.2428 8.93698C23.1933 8.96057 23.1391 8.98343 23.0807 9.00601C23.0807 9.00602 23.0807 9.00601 23.0807 9.00601C22.9444 9.06742 23.0004 9.05532 22.8501 9.09443C22.7425 9.1213 22.6024 9.15037 22.4393 9.18486C22.2671 9.2211 22.0695 9.26315 21.866 9.30712C21.8493 9.31072 21.8326 9.31432 21.8158 9.31794C21.5612 9.37366 21.5434 8.926 21.508 8.89304C21.0044 8.44236 21.102 9.0912 21.094 9.35287C21.0924 9.39787 21.0876 9.43157 21.0759 9.44654C20.8922 9.67338 20.6627 9.80312 20.409 9.89648C20.1316 9.9974 19.7458 10.0823 19.4462 10.1751C19.3324 10.207 19.254 10.2397 19.1794 10.3005C19.0757 10.3814 19.3475 10.7752 19.3412 10.8237C19.2919 11.2109 19.1667 10.7202 19.0208 10.5159C18.9879 10.4698 18.9537 10.4384 18.9197 10.4353C18.7529 10.4192 18.5972 10.4352 18.4561 10.472C18.301 10.5125 18.1638 10.578 18.048 10.6526C17.9411 10.7214 17.8526 10.7978 17.7823 10.869C17.7722 10.8793 17.7703 10.8945 17.7745 10.9132C17.8058 11.0389 18.1009 11.3403 18.0503 11.3906C18.0001 11.4443 17.9614 11.4886 17.937 11.5183C17.8711 11.5893 17.9857 11.4833 17.9136 11.5477C17.8308 11.6481 18.096 11.3132 18.1024 11.2421C18.167 11.1027 18.2151 10.9338 18.2226 10.7991C18.2315 10.6615 18.2004 10.5658 18.1461 10.5473C18.133 10.5426 18.1186 10.542 18.1032 10.5456C18.0428 10.5697 17.6273 10.5101 17.5312 10.5083C17.2548 10.5185 17.24 10.5946 17.3277 10.6814C17.4541 10.8078 17.794 10.9581 17.8454 11.0093C17.9282 11.0912 17.9781 11.17 18.0056 11.2463C18.099 11.4994 17.9361 11.7383 17.9392 12.0697C17.9396 12.0896 17.9427 12.1075 17.949 12.1219C17.9962 12.1966 18.0225 12.1131 18.0586 12.2009C18.0951 12.2563 18.1302 12.334 18.1753 12.4501C18.2192 12.5629 18.2732 12.7118 18.3434 12.9001C18.4127 13.0865 18.498 13.3111 18.5974 13.5712C18.6973 13.8331 18.8114 14.1309 18.9321 14.4604C19.0474 14.7769 19.204 15.2157 19.3104 15.5645C19.3104 15.5645 19.3104 15.5645 19.3104 15.5645C19.4312 15.9808 19.5186 16.2916 19.6371 16.6549C19.6599 16.7254 19.6827 16.7948 19.7057 16.8637C19.8071 17.1658 19.9075 17.4606 20.0086 17.7502C20.1407 18.1284 20.2742 18.4978 20.4134 18.8617C20.5581 19.24 20.7092 19.6125 20.8723 19.9824C21.0369 20.3556 21.2138 20.7262 21.4095 21.0972C21.6048 21.4662 21.8007 21.8082 22.0439 22.1893C22.2098 22.449 22.3828 22.7083 22.5661 22.9696C22.6615 23.1064 23.0396 22.663 23.1277 22.7769C23.6207 23.4317 24.0522 24.1152 24.4793 24.7952C25.0174 25.6521 25.5493 26.5044 26.1879 27.2845C26.2809 27.3996 26.5989 26.9266 26.7627 27.1008C26.8192 27.1599 26.8752 27.2235 26.93 27.2908C27.2038 27.6275 27.4467 28.0547 27.5634 28.4661C27.6327 28.7065 27.0786 28.7072 27.1564 28.9444C27.3374 29.4977 27.6537 30.0047 28.0567 30.4124C28.2251 30.5809 28.4416 29.9994 28.628 30.2053C28.6322 30.21 28.6364 30.215 28.6406 30.2205C29.3195 31.0979 30.0092 31.9354 30.6318 32.8188C31.1999 33.6246 31.7117 34.4684 32.1244 35.4305C32.1607 35.5151 31.8996 35.8582 31.7763 36.1328C31.698 36.3066 31.6753 36.4531 31.8162 36.486C32.0569 36.297 32.3207 36.0536 32.568 35.8406C33.2862 36.5382 33.8877 37.1617 34.5995 37.8935C35.4662 38.7798 36.2793 39.6728 37.0901 40.525C37.7402 41.2086 38.3911 41.869 39.0652 42.4817C39.1597 42.5672 39.3774 41.9842 39.5612 42.1464C39.6874 42.2575 39.8145 42.365 39.9419 42.4707C40.793 43.1755 41.6399 43.7805 42.2894 44.681C42.3638 44.7841 42.4368 44.8918 42.5067 45.0038C42.584 45.1251 41.9472 45.9336 42.3693 46.0297C42.4446 46.0482 43.0216 46.2575 43.2656 46.1435C43.3 46.1251 43.4629 45.664 43.6258 45.7474C44.0075 45.9455 44.378 46.156 44.7343 46.375C45.2594 46.6979 45.7549 47.0393 46.2234 47.3979C46.3511 47.4958 46.0215 47.9179 46.1139 47.9926C46.35 48.1792 46.6245 48.282 46.9018 48.3574C47.4139 48.4969 47.9117 48.5388 48.3382 48.8932C48.7912 49.2564 48.526 50.1126 48.7694 51.0005C48.8068 51.1272 49.1716 51.1617 49.183 51.6647C49.2171 52.9343 48.9571 54.3164 49.0099 55.6701C49.022 55.9657 49.7418 55.6555 49.3119 56.3569C49.2824 56.4061 48.7441 56.6264 48.5959 56.855C48.4922 57.0147 48.6399 57.5364 48.4288 57.7363C48.2124 57.9348 48.0258 57.4914 47.6761 57.7061C47.3203 57.9192 47.4003 58.5226 46.707 58.4964ZM3.17936 42.1595C3.24865 42.0866 3.26419 42.0285 3.24257 41.9828C3.14286 41.7724 2.23214 41.8198 2.22553 42.076C2.22457 42.1182 2.24862 42.1659 2.3056 42.2178C2.33068 42.239 3.15763 42.1837 3.17936 42.1595ZM39.6201 41.5098C38.6968 41.7114 39.6344 42.481 40.3447 42.3591C41.0593 42.2177 39.9029 41.4383 39.6201 41.5098ZM40.4348 36.0969C39.7264 36.5881 42.2157 37.1271 41.8175 36.3586C41.795 36.313 40.4759 36.0664 40.4348 36.0969ZM47.269 51.0569C47.2688 51.0819 47.5332 51.1532 47.5436 51.1302C47.7737 50.5927 47.2727 50.4562 47.269 51.0569ZM40.3278 30.9028C39.9734 31.0611 40.3313 31.6105 40.7747 31.4167C41.1324 31.2577 40.7699 30.7014 40.3278 30.9028ZM15.2515 26.2913C15.2714 26.3101 15.4661 26.2073 15.3778 26.0845C15.0927 25.6895 14.9166 25.9749 15.2515 26.2913ZM39.7772 22.1377C39.9741 23.483 37.982 24.4965 37.9963 23.1828C37.993 22.937 38.7516 23.5641 38.8808 23.2289C39.1089 22.5844 37.7419 22.5197 38.2833 21.8009C38.3808 21.6544 39.7711 22.0485 39.7806 22.1393C39.7795 22.1388 39.7784 22.1382 39.7772 22.1377ZM5.3038 41.7284C5.32611 41.7189 5.32457 41.4158 5.30123 41.4103C4.71945 41.2822 4.72324 41.9126 5.3038 41.7284ZM26.3566 19.9112C26.3996 19.9426 26.9988 19.5769 26.9907 19.5258C26.7531 18.5528 25.5365 19.2921 26.3566 19.9112ZM18.6965 53.4129C19.0202 52.8556 19.3703 52.7957 19.6306 53.5153C19.3103 53.4766 18.9971 53.4631 18.6965 53.4129Z" fill="#241510"/>
</svg>
