<svg xmlns="http://www.w3.org/2000/svg" viewBox="0 0 78.79 78.79"><path d="m59.26,75.89H20.59c-7.53,0-13.63-6.1-13.63-13.63V24.55c0-7.53,6.1-13.63,13.63-13.63h38.67c7.53,0,13.63,6.1,13.63,13.63v37.72c0,7.53-6.1,13.63-13.63,13.63ZM6.78,28.14l65.74.37-65.74-.37Z" fill="none" stroke="#221f20" stroke-miterlimit="10" stroke-width="5"/><path d="m25.02,2.96v14.68m15.17-14.68v14.68m15.17-14.68v14.68" fill="none" stroke="#221f20" stroke-linecap="round" stroke-miterlimit="10" stroke-width="5"/><path d="m27.37,48.05h-5.88c-.56,0-1.01-.45-1.01-1.01v-5.76c0-.56.45-1.01,1.01-1.01h5.88c.56,0,1.01.45,1.01,1.01v5.76c0,.56-.45,1.01-1.01,1.01Z" fill="#221f20"/><path d="m43,48.05h-5.88c-.56,0-1.01-.45-1.01-1.01v-5.76c0-.56.45-1.01,1.01-1.01h5.88c.56,0,1.01.45,1.01,1.01v5.76c0,.56-.45,1.01-1.01,1.01Z" fill="#221f20"/><path d="m58.63,48.05h-5.88c-.56,0-1.01-.45-1.01-1.01v-5.76c0-.56.45-1.01,1.01-1.01h5.88c.56,0,1.01.45,1.01,1.01v5.76c0,.56-.45,1.01-1.01,1.01Z" fill="#221f20"/><path d="m27.37,61.59h-5.88c-.56,0-1.01-.45-1.01-1.01v-5.76c0-.56.45-1.01,1.01-1.01h5.88c.56,0,1.01.45,1.01,1.01v5.76c0,.56-.45,1.01-1.01,1.01Z" fill="#221f20"/><path d="m43,61.59h-5.88c-.56,0-1.01-.45-1.01-1.01v-5.76c0-.56.45-1.01,1.01-1.01h5.88c.56,0,1.01.45,1.01,1.01v5.76c0,.56-.45,1.01-1.01,1.01Z" fill="#221f20"/><path d="m58.63,61.59h-5.88c-.56,0-1.01-.45-1.01-1.01v-5.76c0-.56.45-1.01,1.01-1.01h5.88c.56,0,1.01.45,1.01,1.01v5.76c0,.56-.45,1.01-1.01,1.01Z" fill="#221f20"/></svg>