<?xml version="1.0" encoding="UTF-8"?><svg id="a" xmlns="http://www.w3.org/2000/svg" viewBox="0 0 297.89 257.62"><path d="m134.71,73.57c-2.15-2.43-5.54-7-6.7-13.4-1.63-9.03,2.13-16.27,5.69-23.12,1.42-2.74,7.05-13.04,16.08-19.76,20.35-15.18,59.12-13,78.38,11.05,9.9,12.35,14.53,30.34,10.04,46.56-1.53,5.57-4.74,18.72-14.41,22.78-3.33,1.41-6.24,1.23-15.12,4.29-5.05,1.74-10.48,3.99-10.34,4.42.22.69,13.5-4.57,30.55-6.13,9.82-.9,18.03-.3,23.57.39,1.63-1.04,7.85-4.7,15.9-3.31,1.88.33,10.93,1.88,14.73,10.04,4.16,8.94-1.8,17.66-2.34,18.43-3.52,4.97-9.23,7.96-14.73,8.38-7.96.59-9.67-3.7-18.76-5.03-7.82-1.13-14.19,1.38-26.93,6.39-9.33,3.67-14.63,5.76-20.76,10.43-9.06,6.9-13.71,14.7-20.45,26.3-4.17,7.17-4.67,9.04-12.61,25.54-13.91,28.91-17.59,33.97-20.77,37.85-7.14,8.75-14.36,17.34-25.8,18.43-11.85,1.12-20.59-6.56-21.11-7.03-6.37-5.79-7.88-12.93-9.04-18.43-1.27-6.01-2.98-14.05,1.33-22.11,3.25-6.07,10.11-12.54,17.75-12.72.19,0,.88-.02,1.79.06,7.73.72,12.81,6.81,14.63,8.98,8.82,10.54,5.38,26.59,5.03,28.13m-69.68-50.58c-.83-2.17-2.23-5.31-4.69-8.71,0,0-.78-1.09-1.53-1.98-2.39-2.84-7.91-7.81-12.87-8.4-8.05-.96-16.09,9.46-19.09,17.75-4.48,12.36,1.07,23.34,2.01,25.13,4.89,9.29,12.92,13.13,18.43,15.74,4.87,2.33,10.28,4.9,17.08,3.68,6.47-1.15,10.74-5.13,12.39-6.7,3.5-3.34,2.89-4.55,9.04-14.07,3.59-5.56,6.28-8.95,8.71-11.73,4.42-5.02,6.92-6.66,9.04-7.71,2.48-1.21,6.94-3.41,10.04-1.33,2.42,1.61,2.91,4.93,3.02,5.69.36,2.57-.43,4.61-.84,5.5m-55.95-22.87c2.55-5.65,5.99-12.44,10.56-19.8,2.47-3.97,7.17-11.15,14.07-19.42,7-8.38,12.93-13.9,21.77-22.11,5.97-5.55,11.1-9.98,14.73-13.06m-7.54,6.52c-4.35-28.25-11.28-36.21-17.24-37.68-2.2-.54-5.37-.48-9.72-2.68-2.38-1.2-8.17-4.65-11.39-11.73-.96-2.13-4.82-10.62-.33-19.09,2.74-5.19,7.95-9.12,13.73-10.04,12.24-1.96,21.98,10.46,22.44,11.05,2.35,3.08,2.98,4.87,4.63,7.04,0,0,1.22,1.48,2.41,2.68,4.34,4.35,11.19,6.69,13.87,7.52m45.72,4.21c-.61,3.62,1.74,6.47,1.91,6.66,3.27,3.84,8.94,2.84,9.9,2.67,1.03-.18,5.71-1.02,6.09-3.23.7-4.13-13.66-11.59-16.93-8.56-.62.59-.78,1.51-.95,2.48h-.01Zm-3.42-26.63c-.58,1.4-.47,2.94.38,3.99,1.2,1.49,3.75,1.82,5.71.38m28.54,17.69c-.04.33-.32,2.54,1.14,3.99,1.6,1.61,4.67,1.7,7.04-.19m-173.28,21.51c2.34,9.01,4.69,18,7.04,27.01m11.79-26.25c.57,7.6,1.14,15.22,1.7,22.82m155.53,76.67c7.99-6.45,15.97-12.9,23.96-19.35m-5.54,26.73c4.3-5.07,8.59-10.14,12.9-15.21" fill="none" stroke="#000" stroke-linecap="round" stroke-miterlimit="10" stroke-width="3"/></svg>