<?xml version="1.0" encoding="UTF-8"?><svg id="a" xmlns="http://www.w3.org/2000/svg" viewBox="0 0 297.89 257.62"><path d="m90.38,82.94c-1.43-6.15-4.73-24.01,4.56-41.74,13.03-24.87,44.88-38.18,72.12-29.41,17.74,5.71,33.4,20.73,37.64,37.34,2.04,7.97,2,18.47,1.98,24.95-.03,9.12-.86,16.73-1.66,22.16,3.3-1.95,12.46-6.75,24.67-5.7,1.82.16,14.83,1.47,25.03,11.43,13.22,12.9,12.95,31.75,12.7,50.12-.13,9.33-1.31,23.22-6.62,39.63,1.53-.52,11.93-3.83,22.03,2.26,6.66,4.01,13.88,12.52,12.34,19.93-2.99,14.35-37.3,17.5-52.88,17.44-14.71-.06-25.67-.1-32.31-7.73-5.67-6.52-5.51-18.43-4.97-41.98.41-17.77,2.11-28.98-3.51-32.01-1.52-.82-4.77-.42-11.27.39-7.74.96-12.12,1.56-13.61,4.43-1.46,2.81.54,6.46,1.39,8.15,6.72,13.36,6.74,32.64,3.68,42.65-4.23,13.84-17.72,20.99-21.3,22.89-12.7,6.73-24.67,5.45-44.45,3.34-9.53-1.01-22.83-3.17-38.38-8.14,4.19,11,3.38,21.87-2.56,27.57-.76.73-3.97,3.82-8.76,4.18-6.23.48-10.88-3.98-13.07-6.08-3.12-2.98-6.18-7.29-9.57-19.32-3.65-12.95-6.58-23.36-3.81-36.61,1.59-7.55,2.69-12.81,7.26-16.55,6.15-5.03,13.48-3.14,32.62-1.95,7.18.45,16.69.83,27.99.71C79.49,155.97,3.19,103.49,2.63,100.27c-.52-2.96.68-4.67.68-4.67,3.57-5.06,17.48-.85,22.75.91-.86-.53-18.22-11.25-16.16-20.25.13-.54.41-1.69,1.36-2.73,3.56-3.84,12.99-2.09,23.92,4.06-9.2-5.44-14.37-11.32-13.13-15.13.52-1.59,2.03-2.43,2.97-2.93,8.83-4.72,21.91,3.65,23.85,4.93-6.84-7.83-7.19-12-6.21-14.38.93-2.24,3.08-2.96,3.64-6.17.57-3.25-1.14-5.28.11-6.92,1.1-1.45,3.55-1.31,4.44-1.25,7.63.46,32.84,37.3,39.51,47.17h0l.02.03Z" fill="none" stroke="#241510" stroke-linecap="round" stroke-linejoin="round" stroke-width="3"/><path d="m114.4,91.07c1.66,1.8,14.68,15.48,34.84,13.9,18.82-1.46,29.4-15.08,31.03-17.24" fill="none" stroke="#241510" stroke-linecap="round" stroke-linejoin="round" stroke-width="3"/><path d="m136.62,70.54c.09.66,1.73,11.9,9.98,14.66.55.19,4.56,1.52,7-.1,6.33-4.19-.85-26.11-5.72-39.05" fill="none" stroke="#241510" stroke-linecap="round" stroke-linejoin="round" stroke-width="3"/><path d="m108.56,54.47c1.33,1.12,5.83,4.6,12.38,4.35,6.46-.23,10.84-3.93,12.17-5.15" fill="none" stroke="#241510" stroke-linecap="round" stroke-linejoin="round" stroke-width="3"/><path d="m163.61,53c1.92,1.01,6.33,3.01,12.23,2.78,6.08-.23,10.41-2.71,12.23-3.9" fill="none" stroke="#241510" stroke-linecap="round" stroke-linejoin="round" stroke-width="3"/><path d="m205.64,51.68c2.17-11.03,9.57-46.75,16.73-48.89,2.39-.71,3.85.12,3.85.12,2.04,1.16,2.32,4.29,2.46,9.49.28,10.12-.31,15.12,1.11,15.57,1.42.46,3.18-4.16,7.71-4.4.65-.04,1.05-.06,1.56.12,4.07,1.4,3,11.16,5.19,11.51,1.65.26,2.85-5.18,6.22-5.39,1.46-.09,2.59.87,2.68.93,3.29,2.86-.37,10.57,1.67,11.68,1.71.93,5.07-4.12,8.39-3.01,0,0,1.19.4,2.16,1.92,3.22,5.05-14.4,33.02-19.04,40.27" fill="none" stroke="#241510" stroke-linecap="round" stroke-miterlimit="10" stroke-width="3"/></svg>