<?xml version="1.0" encoding="UTF-8"?><svg id="a" xmlns="http://www.w3.org/2000/svg" viewBox="0 0 297.89 257.62"><path d="m284.64,139.62c-.56-3.5-3.8-6.41-6.76-7.61-5.54-2.25-9.31,1.8-16.06,2.54-9.87,1.07-14.16-6.26-27.05-11.83-5.92-2.56-15.04-5.35-27.89-5.07-2.15-11.86-4.29-23.71-6.44-35.56,14.74-7.53,34.26-18.18,48.7-28.68,3.72-2.7,9.44-7.32,8.45-10.99-.61-2.22-3.48-3.38-3.82-3.51-4.7-1.82-8.97,2.01-10.37.49-1.45-1.57,2.59-6.48,1.27-7.84-1.5-1.55-7.75,3.71-9.92,1.99-2.15-1.71,2.18-8.3.58-9.69-3.34-2.9-30.27,19.18-41.13,27.87-6.93,5.54-10.66,8.3-16.06,8.45-8.85.25-13.6-6.74-20.51-11.44-18.14-12.34-49.67-8.02-68.85,7.69-3.74,3.07-17.26,14.29-20.62,34.25-3.09,18.34,4.33,32.52,6.73,36.72h0c-6.83,10.47-14.09,16.4-19.3,19.82-15.97,10.49-31.33,9.95-34.61,20.34-.77,2.45-1,6.14.8,7.56,3.41,2.7,12.29-4.12,13.52-2.54,1.3,1.67-8.93,9.04-7.34,16.64.14.66.66,3.13,2.27,3.64,4.29,1.38,11.67-12.87,13.52-11.83,2.1,1.18-5.33,14.05-.85,18.59,2.65,2.68,8.13,1.17,9.3.85,9.65-2.65,13.39-12.36,19.45-21.38,4.61-6.86,12.25-15.83,25.35-24.26,2.94,2.76,6.8,5.82,11.7,8.54,11.11,6.17,21.76,7.36,28.03,7.52,0,6.38.03,16.64,0,32.12-.02,11.94-.07,18.01-2.16,22.91-2.04,4.76-4.74,8-6.29,15.12-1.12,5.16-2.16,9.86,0,11.83,4.82,4.41,24.16-3.16,33.81-17.75,5.92-8.95,6.56-18.1,7.61-32.96,1.39-19.72-4.88-27.93,1.69-37.19,1.82-2.56,1.89-1.44,11.65-11.6,6.49-6.76,7.91-8.77,11.17-9.53,5.9-1.35,11.36,2.58,15.21,5.07,13.73,8.88,32.35,14.22,45.64,12.68,15.64-1.81,30.86-13.95,29.58-21.98h0Zm-206.2,84.71c.34,1.72-3.95,2.48-5.02,6.29-.68,2.41.12,5.34,1.98,7.15.56.54,2.02,1.97,3.83,1.8,2.9-.28,3.13-4.39,5.69-4.83,3.01-.52,4.4,4.85,8.65,5.14,2.98.21,6.35-2.15,6.6-4.48.3-2.84-4.25-4.11-3.93-6.71.37-3.04,6.73-2.84,8.16-7.08.72-2.13.09-5.06-1.57-6.04-3.15-1.86-8.35,4.29-11.01,2.54-2.23-1.47.3-6.58-2.48-8.77-1.6-1.26-4.5-1.18-5.88.17-2.11,2.08.4,6.17-1.33,7.5-2,1.53-6.2-3.22-9.52-1.54-1.65.83-2.79,3.09-2.28,4.63.99,2.93,7.68,2.09,8.11,4.23h.01,0ZM168.66,20.88c-.08,1.83-4.6,1.54-6.62,5.14-1.28,2.27-1.18,5.43.26,7.72.43.68,1.57,2.49,3.43,2.76,3,.42,4.24-3.68,6.94-3.51,3.17.21,3.27,5.98,7.5,7.32,2.97.94,6.95-.63,7.76-2.92,1-2.81-3.3-5.19-2.34-7.75,1.12-2.98,7.5-1.24,9.99-5.17,1.25-1.98,1.33-5.1-.11-6.5-2.73-2.65-9.5,2.3-11.76-.12-1.9-2.04,1.91-6.59-.36-9.47-1.31-1.67-4.27-2.29-5.98-1.26-2.65,1.58-1.1,6.34-3.18,7.27-2.39,1.06-5.48-4.76-9.26-3.88-1.87.44-3.58,2.45-3.43,4.13.29,3.2,7.26,3.99,7.17,6.26h-.02Zm-63.97,88.4c4,1.97,8.77,1.45,12.16-1.3,3.67-2.98,5.07-8.04,3.47-12.6m19.12-13.47c1.34.41,4.19,1.04,7.39,0,6.86-2.23,8.6-10.02,8.69-10.43m-7.39,46.93c.49.18,5.26,1.85,9.12-.87,3.78-2.65,5.13-8.4,2.6-13.47m-20.41-3.9c-.38,1.46-.03,2.87.87,3.47,1.4.96,3.79-.32,4.34-1.74.66-1.67-.9-4.43-4.34-6.09m-54.84,128.83c-.78.52-.8,1.96,0,2.53.52.37,1.35.36,1.86-.15.59-.59.5-1.6-.07-2.15-.48-.46-1.27-.57-1.78-.22h0ZM176.43,21.7c-.06.58.17,1.29.76,1.67.78.51,1.9.22,2.43-.45.77-.98.26-2.69-.76-3.03-.99-.34-2.31.66-2.43,1.82Z" fill="none" stroke="#000" stroke-linecap="square" stroke-linejoin="round" stroke-width="3"/></svg>