<?xml version="1.0" encoding="UTF-8"?><svg id="a" xmlns="http://www.w3.org/2000/svg" viewBox="0 0 544.5 235.42"><path d="m196,1.4c-5.1,2.2-5.6,3.6-3.5,8.4,1.6,3.6,2.3,4.2,5,4.2,1.9,0,4-.9,5.5-2.4,2.2-2.2,2.3-2.9,1.4-5.3-1.1-2.9-3.7-6.3-4.8-6.3-.3.1-2,.7-3.6,1.4Z"/><path d="m375.5,1.9c0,.5.6,1.4,1.4,2,1,.8,1.6.8,2.5-.2.6-.8.8-1.7.4-2-.9-1-4.3-.8-4.3.2Z"/><path d="m394.7,10.2c-1.3,1.3-1.6,6.6-.6,9.2.9,2.4,5,1.9,7.2-.9,2.3-2.9,1.9-5.9-1.1-8-2.6-1.8-3.9-1.9-5.5-.3Z"/><path d="m386.4,18.6c-1,1.3-2.5,1.5-7.5.9-4.4-.4-7.1-.2-9.6.8-4.1,1.7-8.4,6.6-9.3,10.6-.8,3.9,3.2,13.8,6.6,16.4,3.2,2.3,10.2,3.8,14.3,3,3.7-.8,9-6.2,14.4-14.7l4.2-6.7-4.3.6c-5.6.9-8.2-1.2-6.7-5.1,1.2-3.2,1.3-7.4.1-7.4-.5,0-1.5.7-2.2,1.6Z"/><path d="m174.2,26c-1.6.5-3.5,1.4-4.3,2.1-1.7,1.4-1.9,9.1-.3,12.1,1.1,2.1,6.6,4.8,9.8,4.8,2.7,0,9.1-5.7,9.1-8.1,0-3.2-3.1-8.5-6-10.3-3.1-1.8-4.1-1.8-8.3-.6Z"/><path d="m401,26c-.8,1.3,2,2.4,4.2,1.6,1.5-.6,1.5-.8.3-1.6-2-1.3-3.7-1.2-4.5,0Z"/><path d="m444.8,26.5c-.3.9-.3,1.8,0,2.1.9.9,2.7-.6,2.7-2.2,0-1.9-1.9-1.8-2.7.1Z"/><path d="m215,32c-1.4,1.6-1.6,2.3-.6,3.3,1.5,1.5,6.6-1.1,6.6-3.3s-3.9-2.3-6,0Z"/><path d="m352.7,34.2c-.7.7-1.2,1.8-1.2,2.5,0,1.8,2.9,1.6,3.7-.3.8-2.1-1-3.7-2.5-2.2Z"/><path d="m40,37.4c-1.8,1.3-1.8,1.7-.5,4,2.6,4.9,9,4.7,9-.2s-4.4-6.9-8.5-3.8Z"/><path d="m101.7,44.5c-6.3,6.3-6.5,6.5-5.8,10.5.6,3.8.5,4.2-2.6,5.8-1.8.9-5.4,3.8-8.1,6.4-5.4,5.5-6.7,5.9-6.7,2.2,0-3.5-5.8-14.2-8.7-16.2-2.2-1.4-2.8-1.3-7.4.8-4.7,2.2-5.4,2.3-11.8,1.2-4.6-.8-7.9-.8-10.3-.2-8.9,2.5-15.2,10.8-14.5,19,.4,5.5,5,16,8.3,19.1,2.7,2.5,3.2,5.9.9,5.9-1.8,0-3.7,3.5-3.3,6.2.5,3.3,3.8,3.8,9.9,1.6,3-1.1,8.9-2.9,13.2-4.1,5.1-1.3,7.7-2.5,7.7-3.5,0-1.1-.8-1.3-3.2-.8-10.3,2.1-20.7,1.8-19.3-.5.4-.5,4.3-2.8,8.8-5.1,11.8-5.8,13.2-7.1,14.7-12.4.7-2.5,1.9-4.8,2.7-5.1,2.3-.9,4.3,1.6,3.7,4.7-.8,3.8,1,6.6,5.6,9,2.2,1.1,4,2.2,4,2.4s-1.6,1.3-3.5,2.5c-4.7,2.7-4.4,4.1.8,4.1,4.7,0,11,2.6,16.2,6.5l3.4,2.7,3.3-2.5c4.3-3.2,11.7-6.9,13-6.5.9.3-2.2,2.7-9.6,7.2-1.9,1.2-2.5,2.1-1.8,2.8,1.7,1.7,7.6,0,10-2.7,1.2-1.4,2.9-2.5,3.7-2.5,2.8,0,4.8-4.6,4.1-9.4-.6-3.9-.4-4.5,1.9-6,1.4-.9,5.6-2.6,9.3-3.7,3.7-1.2,7.4-3,8.3-4.1,1.3-1.6,3.1-2.1,10.4-2.5,8.4-.6,8.8-.5,10.6,1.8l1.8,2.4,2.4-2.3c2.2-2.1,4-2.4,15.8-3.2,7.4-.5,14.8-1.2,16.4-1.4,1.7-.3,9.8-1,18-1.6,8.3-.5,18.2-1.2,22-1.5,50.5-3.6,173.1-7.1,176.4-5.1.5.3,1.1,2.4,1.5,4.6,1.2,7.8,9.9,9.7,19.7,4.4,9.1-5,12.5-11.5,7.7-14.8-3-2.1-13.8-2.1-20.3,0-4,1.3-10.3,1.7-31,1.9-14.3.1-60.6.5-103,.9-83.3.7-103.4,1.2-116.4,2.7-14.7,1.7-22.8,1.4-31.6-1.5-9.8-3.1-12.5-4.9-12.5-8.3,0-7.4-10.2-18.3-17.1-18.3-.7,0-4.1,2.9-7.7,6.5Z"/><path d="m187.7,46.2c.5,1.5,3.7,1.8,4.1.3.1-.6-.9-1.2-2.2-1.3-1.6-.3-2.2.1-1.9,1Z"/><path d="m142,53c-.8,1.3.4,3.2,1.6,2.5,1.2-.8,1.2-3.5,0-3.5-.6,0-1.3.4-1.6,1Z"/><path d="m159.8,59.2c-2.3,1.1-3.2,3.8-1.3,3.8s6-2.4,5.7-3.4c-.5-1.5-1.9-1.6-4.4-.4Z"/><path d="m534.3,58.7c-3.4.9-1.8,2.3,2.6,2.3,4.9,0,7.6-.7,7.6-2.1,0-.9-7-1.1-10.2-.2Z"/><path d="m507.9,60.1c-1.6.6-1.5.8.9,1.4,1.6.4,3.8.3,5-.2,2.1-.9,2-1-.9-1.5-1.7-.2-4-.1-5,.3Z"/><path d="m488,62c-1.4.6,0,.9,4.7.9,3.7.1,7-.4,7.3-.9.8-1.2-9.1-1.2-12,0Z"/><path d="m151.8,63.5c-.3.9-.3,1.8,0,2.1.9.9,2.7-.6,2.7-2.2,0-1.9-1.9-1.8-2.7.1Z"/><path d="m278,76.6l-6.7,4.5-1.9-2c-2.3-2.5-5.6-2.7-10.7-.6-2.4,1.1-5,1.4-7.5,1-5.8-1-8.7,2.4-5.1,6,1.2,1.2,2.6,1.5,5.4,1,3.3-.6,3.9-.4,4.5,1.4,1.3,4.2,8.2,6,13.6,3.7,1.2-.5,2,.2,2.9,2.6,3.4,8.5,9.1,12.8,16.9,12.8,5.5,0,9-1.5,13.3-5.7,6.7-6.6,7.3-13,1.8-21.6-3.6-5.7-7.3-7.7-14.4-7.7-4.9,0-6.2.5-12.1,4.6Z"/><path d="m348.2,80.2c-3.3,1.2-4.4,4.7-2.7,8.9,1.5,3.5,3.7,4.9,7.9,4.9,5.7,0,8.3-5.1,5.6-11.1-1.6-3.4-2.2-3.9-4.9-3.8-1.7,0-4.3.5-5.9,1.1Z"/><path d="m137.5,87c-4.5,4.5-.9,10.5,4.8,7.8,3.4-1.7,3.8-3.8,1.2-7.1-2.6-3.2-3.4-3.3-6-.7Z"/><path d="m162.5,86c-1.2.8-1.1,1,.8,1,1.2,0,2.2-.5,2.2-1,0-1.3-1.1-1.3-3,0Z"/><path d="m8,92.9c-5.8,2.7-8,5.5-8,10.5,0,3.1.8,5.2,2.8,7.9,4,5.2,7.1,6.6,13.2,5.8,9-1.3,12.5-4.6,12.5-12.1,0-11.2-9.9-17-20.5-12.1Z"/><path d="m188.7,93.2c-2.8,2.8.3,9.8,4.2,9.8,2.3,0,4.6-2.9,4.6-5.9,0-3.4-1.7-5.1-5-5.1-1.4,0-3.1.5-3.8,1.2Z"/><path d="m327.4,93.3c-2.8,1.5-3.7,5.2-1.4,6.1,2.8,1,7.2-5.2,4.7-6.8-.4-.3-1.9.1-3.3.7Z"/><path d="m66.2,97.6c-.8.8.1,2.4,1.4,2.4.5,0,.9-.7.9-1.5,0-1.5-1.2-2-2.3-.9Z"/><path d="m164,105.5c-2.6,2.6-2.9,3.4-1.7,5.1,2.1,3.2,8.2,1.3,8.2-2.6,0-5.4-2.7-6.4-6.5-2.5Z"/><path d="m29.5,113c0,1.1.7,2,1.5,2s1.5-.9,1.5-2-.7-2-1.5-2-1.5.9-1.5,2Z"/><path d="m183.3,113.1c-2.2,1.2-2.4,6.7-.4,9.4,2.5,3.4,16.6,1.6,16.6-2.1,0-.9-1.6-3.2-3.6-5-3.7-3.6-8.9-4.5-12.6-2.3Z"/><path d="m154.2,113.6c-.4.4-.7,1.8-.7,3.1,0,2.5,2.4,3.2,3.3.9.7-1.7-1.5-5-2.6-4Z"/><path d="m393.2,113.7c-1.6,1.5-.4,3.4,3.2,5.3,4.5,2.3,8.2,6.8,10.2,12.4,1.9,5.2,5.1,8.2,11.1,10.2,4.2,1.3,5.7,1.4,8.9.5,8.7-2.6,9.1-14.6.8-23.3-4-4.3-6.2-4.6-16-2.6-5.1,1-6.3.9-11.4-1-6.5-2.5-6-2.4-6.8-1.5Z"/><path d="m317.5,124.9c0,2.8,1.3,3.3,3.9,1.5s1.9-3.4-1.5-3.4c-1.7,0-2.4.5-2.4,1.9Z"/><path d="m327.4,129.9c-2.3,2.4-2.7,3.4-2,5.3,1,2.7,4.8,4.3,8.3,3.5,2.5-.7,4.8-4.3,4.8-7.5,0-5-6.7-5.7-11.1-1.3Z"/><path d="m317.2,142.6c-1.2,1.2-.8,4.2.6,4.7,2.1.8,3.9-.8,3.5-2.9-.3-1.9-2.9-3-4.1-1.8Z"/><path d="m184.7,155.2c.2,2.8.7,3.3,2.8,3.3,1.9,0,2.6-.6,2.8-2.4.4-2.5-1.2-4.1-4.1-4.1-1.5,0-1.8.7-1.5,3.2Z"/><path d="m383.5,155.1c-4.3,2.6-5,3.6-5,7.4,0,4.2,3.1,8.9,7,10.5,7.1,3,14.5-5,12.1-13.2-2.1-6.7-7.6-8.6-14.1-4.7Z"/><path d="m306.6,154.9c-1.4.9-.9,4.1.6,4.1,1.9-.1,3.5-1.9,3-3.4-.7-1.8-1.6-2-3.6-.7Z"/><path d="m303.5,162c0,.5.7,1,1.5,1s1.5-.5,1.5-1c0-.6-.7-1-1.5-1s-1.5.4-1.5,1Z"/><path d="m294.6,170.4c-2,2.4.4,5.6,3.9,5.6,2.6,0,3-.4,3-2.9,0-3.9-4.5-5.7-6.9-2.7Z"/><path d="m285.6,184.4c-1.6,1.9-.3,4.5,2.7,5.3,3.2.8,5.6-2,4.1-4.8-1.1-2.2-5.2-2.5-6.8-.5Z"/><path d="m467,188c-.4.6-.3,1.6.3,2.2s1.2.6,1.7-.2c.4-.6.3-1.6-.3-2.2s-1.2-.6-1.7.2Z"/><path d="m479.8,221.7c-2.1.8-1.5,4.3.6,4.3,1.1,0,2.2-.4,2.5-.9.8-1.2-1.7-3.9-3.1-3.4Z"/><path d="m477.7,230.2c-1.6,1.6-1.5,3.3.2,4.7,2.1,1.8,5-1.4,3.6-4-1.2-2.2-2.1-2.4-3.8-.7Z"/></svg>