<?xml version="1.0" encoding="UTF-8"?><svg id="a" xmlns="http://www.w3.org/2000/svg" viewBox="0 0 32 32"><circle cx="16" cy="16" r="16" fill="#fff"/><path d="m7.88,8.77h2.16v15.78h-2.16v-15.78Z"/><path d="m13.46,8.77h6.82c1.86,0,3.18.55,3.97,1.65.46.65.69,1.4.69,2.26,0,1-.28,1.81-.85,2.45-.29.34-.72.64-1.27.92.81.31,1.41.66,1.82,1.04.71.69,1.06,1.64,1.06,2.85,0,1.02-.32,1.94-.96,2.76-.96,1.23-2.48,1.85-4.57,1.85h-6.71v-15.78Zm6.02,6.67c.91,0,1.62-.12,2.13-.38.8-.39,1.19-1.1,1.19-2.13s-.42-1.73-1.27-2.08c-.48-.2-1.19-.3-2.13-.3h-3.85v4.89h3.93Zm.72,7.28c1.32,0,2.27-.38,2.83-1.14.35-.48.53-1.06.53-1.74,0-1.15-.52-1.93-1.55-2.34-.55-.22-1.28-.33-2.18-.33h-4.28v5.55h4.65Z"/></svg>